<svg viewBox="0 0 25 25" fill="none" xmlns="http://www.w3.org/2000/svg">
<path fill="currentColor" d="M11.0617 25C10.9946 25 10.9271 24.9795 10.8686 24.9372C10.7214 24.8309 10.689 24.626 10.796 24.4793C11.1279 24.024 11.4177 23.4616 11.6819 22.7597C11.7455 22.59 11.9357 22.5022 12.1057 22.5682C12.2757 22.6316 12.3618 22.8206 12.2981 22.9903C12.0128 23.7479 11.6957 24.3608 11.3281 24.8649C11.2638 24.9532 11.1636 25 11.0617 25ZM13.3254 24.9212C13.2759 24.9212 13.2255 24.9103 13.1782 24.8866C13.0157 24.8053 12.9501 24.608 13.0317 24.446C13.8662 22.7892 14.4018 20.7999 14.6238 18.534C14.6415 18.354 14.8044 18.2311 14.9831 18.2394C15.164 18.2573 15.2964 18.4174 15.2787 18.5981C15.049 20.944 14.4908 23.0108 13.6197 24.7406C13.5622 24.8553 13.4459 24.9212 13.3254 24.9212ZM15.7141 24.4294C15.6659 24.4294 15.6167 24.4185 15.5701 24.3961C15.4069 24.3166 15.3391 24.1207 15.4188 23.958C16.9322 20.8646 16.9463 16.0138 16.4547 12.5061C16.1128 10.0884 14.5618 8.52568 12.5031 8.52568C12.0671 8.52568 11.6314 8.59933 11.2086 8.74408C11.036 8.80364 10.8496 8.71205 10.7905 8.54105C10.7314 8.36941 10.8227 8.18304 10.9946 8.12412C11.4865 7.95568 11.9939 7.86986 12.5031 7.86986C14.9092 7.86986 16.716 9.65415 17.1064 12.4151C17.2808 13.6602 18.0478 20.0807 16.01 24.2449C15.9532 24.3615 15.8359 24.4294 15.7141 24.4294ZM9.00849 24.3903C8.94551 24.3903 8.88157 24.3724 8.82534 24.3346C8.67432 24.2334 8.63447 24.0297 8.73569 23.8792C10.8156 20.7948 10.3166 16.6056 10.0184 14.1021C9.93613 13.4098 9.87091 12.8628 9.87091 12.4606C9.87091 11.0138 11.0518 9.83732 12.5031 9.83732C13.844 9.83732 14.9252 10.8979 15.1325 12.4164C15.3169 13.7537 15.4043 15.1787 15.3854 16.5377C15.3825 16.719 15.2154 16.8644 15.0519 16.8611C14.87 16.8586 14.7247 16.71 14.7273 16.5288C14.746 15.2024 14.6605 13.8107 14.4805 12.5054C14.3437 11.5038 13.6795 10.4931 12.5031 10.4931C11.4145 10.4931 10.529 11.3757 10.529 12.4606C10.529 12.8244 10.5952 13.3803 10.672 14.0246C10.9807 16.6184 11.4977 20.9594 9.28194 24.2455C9.21831 24.3397 9.11453 24.3903 9.00849 24.3903ZM7.11335 23.6486C7.05969 23.6486 7.00507 23.6358 6.95462 23.6077C6.79557 23.5199 6.73773 23.3207 6.82577 23.1619C8.6213 19.9225 8.30769 16.9815 8.05578 14.6183C7.97417 13.851 7.89673 13.126 7.89673 12.4606C7.89673 11.377 8.27974 10.3305 8.97507 9.5139C9.09299 9.37492 9.30057 9.35827 9.43873 9.47611C9.57754 9.59267 9.59457 9.80018 9.47697 9.93788C8.88221 10.6366 8.55479 11.5326 8.55479 12.4606C8.55479 13.0915 8.6303 13.7992 8.71031 14.5491C8.97186 17.004 9.29768 20.0589 7.40158 23.4796C7.34181 23.5878 7.22935 23.6486 7.11335 23.6486ZM18.1362 23.4847C18.1002 23.4847 18.0632 23.4789 18.0273 23.4661C17.8557 23.4066 17.7657 23.2189 17.8258 23.0485C19.1512 19.2814 18.622 14.0233 18.4283 12.5016C18.3508 11.9047 18.2168 11.3334 18.0298 10.805C17.9694 10.6347 18.0594 10.447 18.231 10.3868C18.401 10.3273 18.5899 10.4157 18.6506 10.5873C18.8527 11.1592 18.9976 11.7753 19.0812 12.4183C19.2794 13.9772 19.8199 19.3627 18.4466 23.265C18.399 23.4001 18.2721 23.4847 18.1362 23.4847ZM5.26416 22.6258C5.20343 22.6258 5.14174 22.6092 5.08679 22.574C4.93385 22.476 4.88951 22.2736 4.98751 22.1212C5.44699 21.4071 5.79209 20.6392 6.01348 19.8367C6.06167 19.6618 6.24193 19.5606 6.41802 19.6074C6.59313 19.6554 6.69596 19.836 6.64776 20.0109C6.40902 20.8768 6.03661 21.7055 5.54146 22.4747C5.47849 22.5727 5.37245 22.6258 5.26416 22.6258ZM20.6897 21.8451C20.6646 21.8451 20.6389 21.8426 20.6136 21.8362C20.4365 21.7945 20.3273 21.6178 20.3694 21.4417C20.825 19.5248 20.9239 15.944 20.7302 13.8017C20.3976 10.1742 18.7869 7.21276 16.3105 5.67632C16.1562 5.58025 16.109 5.37787 16.2051 5.22416C16.3008 5.07109 16.5039 5.02434 16.6581 5.11913C19.3109 6.76509 21.0342 9.90841 21.3857 13.7422C21.5839 15.9363 21.4801 19.6144 21.0094 21.5928C20.9737 21.7439 20.8388 21.8451 20.6897 21.8451ZM12.5298 21.2354C12.5086 21.2354 12.4874 21.2335 12.4659 21.229C12.2875 21.1944 12.1715 21.0215 12.2066 20.8441C12.6786 18.4603 12.6683 15.5021 12.1783 12.5138C12.1491 12.3344 12.2708 12.166 12.4501 12.1372C12.631 12.1052 12.7991 12.2288 12.828 12.4074C13.3302 15.4714 13.3389 18.5129 12.8524 20.9709C12.8213 21.1272 12.6837 21.2354 12.5298 21.2354ZM3.69806 21.1502C3.64922 21.1502 3.59941 21.1394 3.5525 21.1163C3.38959 21.0362 3.32276 20.8396 3.40341 20.677C4.64948 18.1651 4.37411 16.1727 4.13088 14.4146C4.03705 13.7357 3.94836 13.094 3.94836 12.4606C3.94836 7.7597 7.78587 3.93493 12.5031 3.93493C13.2072 3.93493 13.9051 4.02715 14.5766 4.20904C14.7521 4.25644 14.8555 4.4364 14.808 4.61125C14.7604 4.78609 14.5785 4.88792 14.4044 4.84181C13.7887 4.67529 13.149 4.59075 12.5031 4.59075C8.14896 4.59075 4.60642 8.12091 4.60642 12.4606C4.60642 13.0492 4.69221 13.6691 4.78283 14.325C5.03892 16.1765 5.32907 18.2753 3.99335 20.9677C3.93583 21.083 3.81919 21.1502 3.69806 21.1502ZM2.30353 19.6746C2.2743 19.6746 2.24505 19.6708 2.21581 19.6631C2.04038 19.6144 1.93755 19.4338 1.98607 19.2596C2.5728 17.141 2.38194 15.9005 2.17983 14.5869C2.07861 13.9298 1.97418 13.2509 1.97418 12.4606C1.97418 9.05981 3.64022 5.85821 6.43055 3.89651C6.57868 3.79147 6.78432 3.82669 6.88907 3.97528C6.99382 4.12323 6.95815 4.32753 6.8097 4.43192C4.19385 6.27129 2.63224 9.27245 2.63224 12.4606C2.63224 13.201 2.72832 13.8261 2.83017 14.4876C3.03389 15.8114 3.24435 17.1801 2.62035 19.4338C2.58019 19.5792 2.44781 19.6746 2.30353 19.6746ZM23.072 18.9798C23.0643 18.9798 23.0565 18.9798 23.0485 18.9791C22.8673 18.9663 22.7307 18.8094 22.7436 18.6288C22.8008 17.8129 22.8152 17.0546 22.7889 16.2425C22.7828 16.0612 22.9251 15.9094 23.107 15.9037C23.2693 15.8992 23.4402 16.0388 23.4463 16.2207C23.4736 17.0565 23.4588 17.8359 23.3997 18.6749C23.3878 18.8478 23.2432 18.9798 23.072 18.9798ZM6.6664 17.996C6.66189 17.996 6.6574 17.996 6.6529 17.996C6.47135 17.9883 6.32998 17.8359 6.33737 17.6547C6.38749 16.409 6.23197 15.2568 6.09477 14.2404C6.00255 13.5551 5.92254 12.9634 5.92254 12.4606C5.92254 8.84463 8.8745 5.90239 12.5031 5.90239C14.4879 5.90239 16.2571 6.79903 17.4845 8.42705C17.5935 8.57243 17.5642 8.77802 17.419 8.88626C17.2744 8.99706 17.0681 8.96567 16.9582 8.82157C15.8584 7.36198 14.2762 6.55822 12.5031 6.55822C9.23759 6.55822 6.5806 9.20584 6.5806 12.4606C6.5806 12.9192 6.65772 13.4911 6.74705 14.1527C6.88104 15.1441 7.04748 16.3782 6.99478 17.6816C6.98771 17.8577 6.84183 17.996 6.6664 17.996ZM0.888447 16.4417C0.748353 16.4417 0.61886 16.352 0.57452 16.2124C0.193437 15.0038 0 13.7415 0 12.4606C0 11.2713 0.166121 10.1063 0.493868 8.99705C0.545276 8.82413 0.727789 8.72422 0.902267 8.77546C1.07675 8.8267 1.17635 9.00858 1.12494 9.18278C0.815186 10.2312 0.65806 11.3341 0.65806 12.4606C0.65806 13.6749 0.841212 14.8706 1.20238 16.0151C1.25668 16.188 1.1606 16.3725 0.987091 16.4263C0.954319 16.4365 0.920896 16.4417 0.888447 16.4417ZM23.0054 14.3294C22.8371 14.3294 22.6934 14.2014 22.678 14.031C22.6674 13.9119 22.6584 13.7889 22.6494 13.6634L22.6253 13.347C22.116 6.93224 18.0481 2.62329 12.5031 2.62329C11.2278 2.62329 9.99429 2.86025 8.83626 3.32778C8.66724 3.39439 8.47574 3.31433 8.40794 3.14653C8.33982 2.97874 8.42079 2.78788 8.58949 2.71935C9.82625 2.22044 11.143 1.96746 12.5031 1.96746C18.4119 1.96746 22.7433 6.51915 23.2811 13.2938L23.3335 13.9721C23.3499 14.1527 23.2162 14.3122 23.0353 14.3282C23.0254 14.3288 23.0154 14.3294 23.0054 14.3294ZM24.6705 12.4606C24.4932 12.4606 24.3466 12.3197 24.3418 12.1417C24.1902 6.50121 20.0326 1.73818 14.4561 0.815291C14.2768 0.785832 14.1557 0.616754 14.1856 0.438063C14.2148 0.26002 14.3819 0.137054 14.5641 0.168435C20.4507 1.14256 24.8395 6.17074 24.9999 12.1237C25.0047 12.305 24.8614 12.4555 24.6795 12.4606C24.6766 12.4606 24.6737 12.4606 24.6705 12.4606ZM1.61206 7.36519C1.56289 7.36519 1.51277 7.3543 1.46553 7.3306C1.30295 7.2499 1.23675 7.05265 1.31805 6.89061C3.44678 2.64058 7.73253 0 12.5031 0H12.569C12.7509 0 12.8981 0.146661 12.8981 0.327911C12.8981 0.50916 12.7509 0.655822 12.569 0.655822H12.5031C7.98348 0.655822 3.9233 3.15742 1.9067 7.18394C1.84919 7.29858 1.73287 7.36519 1.61206 7.36519Z" />
</svg>
