<svg width="216" height="56" viewBox="0 0 216 56" fill="none" 
    xmlns="http://www.w3.org/2000/svg">
    <path fill-rule="evenodd" clip-rule="evenodd" d="M45.8131 24.4844C45.8131 12.7476 36.2005 3.25684 24.3844 3.25684C12.5363 3.25684 2.95569 12.7792 2.95569 24.4844V41.1881H9.50246V24.4844C9.50246 16.3224 16.177 9.74217 24.3844 9.74217C32.5918 9.74217 39.2663 16.354 39.2663 24.4844V29.4196H45.8131V24.4844Z" fill="#4AC09A" stroke="#4AC09A" stroke-width="4.92614"/>
    <path fill-rule="evenodd" clip-rule="evenodd" d="M42.463 45.1287C42.1092 45.1287 41.5302 44.3534 40.887 43.1582H44.0069C43.3636 44.3211 42.8168 45.1287 42.463 45.1287Z" fill="#61C9A8"/>
    <path fill-rule="evenodd" clip-rule="evenodd" d="M48.7688 33.1881V30.0215H36.1251V33.1881C36.1251 33.1881 38.9099 39.7992 40.8945 42.9937H43.9994C46.016 39.7992 48.7688 33.1881 48.7688 33.1881Z" fill="#EDD9A3"/>
    <rect y="43.3223" width="12.6438" height="1.80625" fill="#EDD9A3"/>
    <path id="logo-type" fill-rule="evenodd" clip-rule="evenodd" d="M84.2436 33.5458C84.9442 34.6668 85.5835 35.7614 86.1615 36.8299C86.7395 37.8983 87.2211 38.8178 87.6065 39.5885H87.7116C87.5364 38.3975 87.4226 37.2152 87.37 36.0417C87.3175 34.8682 87.2912 33.5633 87.2912 32.1271V9.58503H91.2847V45.0007H87.0285L72.1056 21.0399C71.4049 19.954 70.7656 18.8681 70.1876 17.7821C69.6096 16.6962 69.128 15.7679 68.7426 14.9972H68.6375C68.8127 16.1883 68.9265 17.3705 68.9791 18.544C69.0316 19.7176 69.0579 21.0224 69.0579 22.4587V45.0007H65.0645V9.58503H69.3206L84.2436 33.5458ZM127.278 27.2403C127.278 33.0554 125.807 37.4692 122.865 40.4818C119.922 43.4944 115.561 45.0007 109.781 45.0007H99.9021V9.58503H109.781C115.561 9.58503 119.922 11.0738 122.865 14.0514C125.807 17.029 127.278 21.4253 127.278 27.2403ZM123.285 27.2403C123.285 24.7532 122.987 22.6251 122.392 20.856C121.796 19.087 120.929 17.642 119.791 16.521C118.652 15.4001 117.242 14.5769 115.561 14.0514C113.879 13.5259 111.953 13.2632 109.781 13.2632H103.896V41.3225H109.781C111.953 41.3225 113.879 41.0598 115.561 40.5343C117.242 40.0089 118.652 39.1769 119.791 38.0384C120.929 36.8999 121.796 35.4374 122.392 33.6509C122.987 31.8643 123.285 29.7275 123.285 27.2403ZM152.29 35.2798H137.209L133.689 45.0007H129.59L142.779 9.58503H146.773L159.962 45.0007H155.863L152.29 35.2798ZM138.576 31.7067H150.976L147.088 21.1976C146.703 20.0065 146.326 18.8243 145.958 17.6508C145.59 16.4772 145.214 15.295 144.829 14.1039H144.723C144.338 15.295 143.962 16.4772 143.594 17.6508C143.226 18.8243 142.849 20.0065 142.464 21.1976L138.576 31.7067ZM169.21 45.0007H165.321V19.6212H169.21V45.0007ZM164.586 11.7394C164.586 11.0038 164.813 10.3732 165.269 9.84775C165.724 9.3223 166.39 9.05957 167.265 9.05957C168.176 9.05957 168.851 9.3223 169.288 9.84775C169.726 10.3732 169.945 11.0038 169.945 11.7394C169.945 12.475 169.726 13.0968 169.288 13.6048C168.851 14.1127 168.176 14.3667 167.265 14.3667C166.39 14.3667 165.724 14.1127 165.269 13.6048C164.813 13.0968 164.586 12.475 164.586 11.7394ZM186.602 12.2648C185.691 12.2648 184.947 12.3962 184.369 12.6589C183.791 12.9217 183.344 13.3158 183.029 13.8412C182.714 14.3667 182.495 14.9972 182.372 15.7329C182.25 16.4685 182.188 17.3092 182.188 18.255V19.6212H189.65V22.7739H182.188V45.0007H178.405V22.7739H174.359V19.6212H178.405V18.2025C178.405 15.4351 179.001 13.2282 180.192 11.5818C181.383 9.93532 183.432 9.11212 186.339 9.11212C187.39 9.11212 188.319 9.23472 189.124 9.47993C189.93 9.72515 190.683 10.0404 191.384 10.4258L190.491 13.2632C189.265 12.5976 187.968 12.2648 186.602 12.2648ZM211.982 40.0089C211.666 40.5694 211.246 41.1386 210.721 41.7166C210.195 42.2946 209.565 42.8288 208.829 43.3192C208.093 43.8097 207.261 44.2125 206.333 44.5278C205.405 44.8431 204.38 45.0007 203.259 45.0007C200.667 45.0007 198.618 44.2125 197.111 42.6362C195.605 41.0598 194.852 38.5376 194.852 35.0696V19.6212H198.635V35.0696C198.635 37.1364 199.082 38.739 199.975 39.8775C200.868 41.016 202.121 41.5852 203.732 41.5852C204.678 41.5852 205.562 41.4364 206.386 41.1386C207.209 40.8408 207.962 40.4555 208.645 39.9826C209.328 39.5097 209.95 38.9667 210.51 38.3537C211.071 37.7407 211.561 37.1014 211.982 36.4358V19.6212H215.87V43.1091C215.87 47.3127 214.88 50.4392 212.901 52.4884C210.922 54.5377 208.128 55.5623 204.52 55.5623C202.839 55.5623 201.21 55.3259 199.634 54.853C198.057 54.3801 196.796 53.8284 195.85 53.1978L196.849 50.0976C197.829 50.6931 198.95 51.1748 200.212 51.5426C201.473 51.9104 202.839 52.0943 204.31 52.0943C205.536 52.0943 206.622 51.9455 207.568 51.6477C208.514 51.3499 209.319 50.8508 209.985 50.1502C210.651 49.4496 211.15 48.5213 211.483 47.3652C211.815 46.2092 211.982 44.773 211.982 43.0565V40.0089Z" fill="white"/>
</svg>
