<svg width="20" height="18" viewBox="0 0 20 18" fill="none" xmlns="http://www.w3.org/2000/svg">
  <path fill-rule="evenodd" clip-rule="evenodd" d="M19.456 14.1538C17.0485 9.95177 14.6388 5.75071 12.2262 1.55106C11.7468 0.726151 10.9034 -0.0577569 9.87534 0.0348027C8.96631 0.117248 8.2664 0.82094 7.82856 1.56695C6.27931 4.21007 4.73291 6.85497 3.18646 9.49994L3.18629 9.50023L3.18547 9.50165C2.29334 11.0275 1.40119 12.5534 0.508477 14.079C0.186065 14.6549 -0.0497765 15.3104 0.00901763 15.9784C0.0492255 16.4856 0.297458 16.974 0.695504 17.2965C1.26981 17.7684 2.03783 17.9205 2.76615 17.927C4.81024 17.9344 6.85442 17.9432 8.89862 17.9519H8.89892C11.7025 17.9638 14.506 17.9758 17.3094 17.9843C18.2147 17.977 19.2326 17.6709 19.7063 16.8429C20.1859 15.9939 19.9133 14.9515 19.456 14.1538ZM9.9792 16.1386C9.19604 16.1386 8.56112 15.5082 8.56112 14.7306C8.56112 13.953 9.19604 13.3226 9.9792 13.3226C10.7624 13.3226 11.3973 13.953 11.3973 14.7306C11.3973 15.5082 10.7624 16.1386 9.9792 16.1386ZM10.3759 12.3169C10.9353 12.3169 11.3888 11.8665 11.3888 11.3111L12.233 4.27124C12.233 3.71576 11.7795 3.26547 11.22 3.26547H8.73846C8.179 3.26547 7.72548 3.71576 7.72548 4.27124L8.5696 11.3111C8.5696 11.8665 9.02316 12.3169 9.58257 12.3169H10.3759Z" fill="currentColor"/>
</svg>
