<?xml version="1.0" encoding="UTF-8"?>
<svg width="364px" height="524px" viewBox="0 0 364 524" version="1.1" xmlns="http://www.w3.org/2000/svg" xmlns:xlink="http://www.w3.org/1999/xlink">
    <!-- Generator: Sketch 48.2 (47327) - http://www.bohemiancoding.com/sketch -->
    <title>image (1)</title>
    <desc>Created with Sketch.</desc>
    <defs></defs>
    <g id="Optimazied" stroke="none" stroke-width="1" fill="none" fill-rule="evenodd" transform="translate(-138.000000, -58.000000)">
        <g id="image-(1)" transform="translate(138.000000, 58.000000)" fill-rule="nonzero">
            <path d="M318.913,176.104 L279.105,176.104 L279.105,177.747 L260.464,177.747 L260.464,147.705 C260.464,108.42 228.229,76.452 188.615,76.452 C149.001,76.452 116.767,108.42 116.767,147.705 L116.767,249.385 L58.317,249.385 L58.305,249.192 L40.063,249.192 L40.063,147.512 C40.063,66.246 106.475,0.192 188.615,0.192 C270.561,0.192 337.167,66.246 337.167,147.512 L337.167,177.362 L318.913,177.362 L318.913,176.104 Z" id="Shape" fill="#FFDE54"></path>
            <path d="M298.912,250.287 C296.776,250.287 293.281,245.665 289.397,238.54 L308.233,238.54 C304.349,245.473 301.048,250.287 298.913,250.287 L298.912,250.287 Z" id="Shape" fill="#5DBFC8"></path>
            <path d="M337.167,178.724 L337.167,159.344 L260.464,159.344 L260.464,178.724 C260.464,178.724 277.358,219.183 289.397,238.732 L308.233,238.732 C320.467,219.182 337.167,178.724 337.167,178.724 Z M40.064,249.192 L116.767,249.192 L116.767,260.361 L40.064,260.361 L40.064,249.192 Z" id="Shape" fill="#FFFFFF"></path>
            <path d="M21.513,264 C23.106,268.784 27.621,272.232 32.943,272.232 L331.058,272.232 C336.38,272.232 340.894,268.782 342.487,264 L364,264 L364,501.061 C364,513.307 354.075,523.233 341.83,523.233 L22.17,523.233 C9.927,523.233 0,513.31 0,501.061 L0,264 L21.513,264 Z" id="Shape" fill="#5DBFC8"></path>
            <g id="Group" transform="translate(138.895000, 321.600000)" fill="#424657">
                <path d="M18.958,64.862 L72.042,64.862 L72.042,122.256 C72.042,136.916 60.162,148.8 45.5,148.8 C30.841,148.8 18.958,136.907 18.958,122.256 L18.958,64.862 Z" id="Shape"></path>
                <ellipse id="Oval" cx="45.5" cy="45.785" rx="45.5" ry="45.785"></ellipse>
            </g>
        </g>
    </g>
</svg>