<svg width="17" height="11" viewBox="0 0 17 11" fill="none" xmlns="http://www.w3.org/2000/svg">
<path fill-rule="evenodd" clip-rule="evenodd" d="M7.92741 10.5938L0.198242 2.86458C0.0662975 2.73264 0.000326157 2.57639 0.000326157 2.39583C0.000326157 2.21528 0.0662975 2.05903 0.198242 1.92708L1.92741 0.197917C2.05935 0.0659716 2.2156 0 2.39616 0C2.57672 0 2.73296 0.0659716 2.86491 0.197917L8.39616 5.72917L13.9274 0.197917C14.0594 0.0659716 14.2156 0 14.3962 0C14.5767 0 14.733 0.0659716 14.8649 0.197917L16.5941 1.92708C16.726 2.05903 16.792 2.21528 16.792 2.39583C16.792 2.57639 16.726 2.73264 16.5941 2.86458L8.86491 10.5938C8.73296 10.7257 8.57672 10.7917 8.39616 10.7917C8.2156 10.7917 8.05935 10.7257 7.92741 10.5938Z" fill="currentColor"/>
</svg>
