<svg width="24" height="24" viewBox="0 0 24 24" fill="currentColor" xmlns="http://www.w3.org/2000/svg">
  <path 
    d="M10.6192 24C10.5548 24 10.49 23.9803 10.4339 23.9397C10.2926 23.8377 10.2614 23.6409 10.3641 23.5001C10.6828 23.063 10.961 22.5232 11.2146 21.8493C11.2757 21.6864 11.4583 21.6022 11.6214 21.6655C11.7846 21.7264 11.8673 21.9077 11.8062 22.0707C11.5323 22.798 11.2278 23.3864 10.875 23.8703C10.8133 23.9551 10.717 24 10.6192 24ZM12.7924 23.9244C12.7449 23.9244 12.6964 23.9139 12.6511 23.8912C12.495 23.8131 12.4321 23.6237 12.5104 23.4682C13.3115 21.8776 13.8257 19.9679 14.0389 17.7926C14.0559 17.6199 14.2122 17.5018 14.3838 17.5098C14.5574 17.527 14.6845 17.6807 14.6675 17.8541C14.447 20.1063 13.9112 22.0903 13.0749 23.751C13.0197 23.861 12.9081 23.9244 12.7924 23.9244ZM15.0855 23.4522C15.0393 23.4522 14.9921 23.4417 14.9473 23.4202C14.7906 23.344 14.7255 23.1558 14.802 22.9997C16.2549 20.03 16.2685 15.3733 15.7965 12.0058C15.4683 9.68484 13.9794 8.18465 12.003 8.18465C11.5844 8.18465 11.1662 8.25536 10.7602 8.39431C10.5946 8.45149 10.4157 8.36357 10.3589 8.19941C10.3021 8.03464 10.3897 7.85572 10.5548 7.79916C11.027 7.63745 11.5141 7.55507 12.003 7.55507C14.3128 7.55507 16.0473 9.26799 16.4221 11.9185C16.5896 13.1138 17.3259 19.2775 15.3696 23.2751C15.315 23.387 15.2024 23.4522 15.0855 23.4522ZM8.64815 23.4147C8.58769 23.4147 8.5263 23.3975 8.47232 23.3612C8.32734 23.264 8.28909 23.0685 8.38626 22.924C10.383 19.963 9.90391 15.9414 9.61766 13.538C9.53869 12.8734 9.47607 12.3483 9.47607 11.9622C9.47607 10.5733 10.6097 9.44383 12.003 9.44383C13.2903 9.44383 14.3282 10.462 14.5272 11.9198C14.7043 13.2035 14.7882 14.5715 14.77 15.8762C14.7672 16.0502 14.6068 16.1898 14.4498 16.1867C14.2752 16.1842 14.1358 16.0416 14.1382 15.8676C14.1561 14.5943 14.0741 13.2583 13.9013 12.0052C13.7699 11.0436 13.1323 10.0734 12.003 10.0734C10.9579 10.0734 10.1078 10.9207 10.1078 11.9622C10.1078 12.3114 10.1714 12.8451 10.2451 13.4636C10.5415 15.9537 11.0378 20.121 8.91066 23.2757C8.84958 23.3661 8.74994 23.4147 8.64815 23.4147ZM6.82882 22.7027C6.77731 22.7027 6.72486 22.6904 6.67643 22.6634C6.52374 22.5791 6.46822 22.3879 6.55274 22.2354C8.27645 19.1256 7.97538 16.3023 7.73355 14.0336C7.6552 13.297 7.58086 12.601 7.58086 11.9622C7.58086 10.9219 7.94855 9.91725 8.61607 9.13334C8.72927 8.99993 8.92854 8.98394 9.06118 9.09707C9.19444 9.20896 9.21079 9.40817 9.09789 9.54036C8.52692 10.2111 8.21259 11.0713 8.21259 11.9622C8.21259 12.5678 8.28509 13.2472 8.36189 13.9672C8.61298 16.3238 8.92577 19.2566 7.10551 22.5404C7.04814 22.6443 6.94017 22.7027 6.82882 22.7027ZM17.4107 22.5453C17.3762 22.5453 17.3407 22.5398 17.3062 22.5275C17.1414 22.4703 17.0551 22.2902 17.1128 22.1266C18.3852 18.5102 17.8771 13.4624 17.6911 12.0015C17.6168 11.4285 17.4882 10.8801 17.3086 10.3728C17.2506 10.2093 17.337 10.0292 17.5017 9.97136C17.6649 9.91418 17.8463 9.99903 17.9046 10.1638C18.0986 10.7128 18.2377 11.3043 18.3179 11.9216C18.5083 13.4181 19.0271 18.5882 17.7087 22.3344C17.6631 22.4641 17.5412 22.5453 17.4107 22.5453ZM5.05359 21.7208C4.99529 21.7208 4.93607 21.7048 4.88332 21.671C4.73649 21.5769 4.69393 21.3827 4.78801 21.2363C5.22911 20.5508 5.56041 19.8136 5.77294 19.0432C5.8192 18.8754 5.99226 18.7782 6.1613 18.8231C6.32941 18.8692 6.42812 19.0426 6.38185 19.2104C6.15266 20.0417 5.79515 20.8373 5.3198 21.5757C5.25935 21.6698 5.15755 21.7208 5.05359 21.7208ZM19.8621 20.9713C19.8381 20.9713 19.8134 20.9689 19.789 20.9627C19.619 20.9228 19.5142 20.7531 19.5546 20.584C19.992 18.7438 20.087 15.3063 19.901 13.2497C19.5817 9.76724 18.0354 6.92425 15.658 5.44927C15.51 5.35704 15.4646 5.16275 15.5569 5.0152C15.6488 4.86825 15.8437 4.82337 15.9918 4.91436C18.5385 6.49449 20.1928 9.51208 20.5303 13.1925C20.7206 15.2989 20.6209 18.8299 20.169 20.7291C20.1348 20.8742 20.0052 20.9713 19.8621 20.9713ZM12.0286 20.386C12.0083 20.386 11.9879 20.3842 11.9672 20.3799C11.796 20.3467 11.6847 20.1806 11.7183 20.0103C12.1715 17.7219 12.1616 14.882 11.6912 12.0132C11.6631 11.8411 11.78 11.6794 11.9521 11.6517C12.1258 11.6209 12.2871 11.7396 12.3149 11.9112C12.797 14.8525 12.8053 17.7724 12.3383 20.1321C12.3084 20.2821 12.1764 20.386 12.0286 20.386ZM3.55013 20.3042C3.50325 20.3042 3.45544 20.2938 3.4104 20.2716C3.25401 20.1948 3.18985 20.006 3.26727 19.8499C4.4635 17.4385 4.19915 15.5258 3.96564 13.838C3.87557 13.1863 3.79043 12.5703 3.79043 11.9622C3.79043 7.44931 7.47443 3.77753 12.003 3.77753C12.6789 3.77753 13.3489 3.86607 13.9936 4.04068C14.162 4.08618 14.2613 4.25895 14.2156 4.4268C14.17 4.59464 13.9954 4.69241 13.8282 4.64813C13.2372 4.48828 12.623 4.40712 12.003 4.40712C7.823 4.40712 4.42217 7.79608 4.42217 11.9622C4.42217 12.5272 4.50453 13.1224 4.59152 13.752C4.83736 15.5294 5.11591 17.5443 3.83361 20.129C3.7784 20.2397 3.66643 20.3042 3.55013 20.3042ZM2.21139 18.8877C2.18332 18.8877 2.15525 18.884 2.12718 18.8766C1.95876 18.8299 1.86005 18.6565 1.90663 18.4893C2.46989 16.4554 2.28666 15.2645 2.09263 14.0034C1.99546 13.3726 1.89521 12.7209 1.89521 11.9622C1.89521 8.69742 3.49461 5.62388 6.17333 3.74065C6.31553 3.63981 6.51295 3.67362 6.61351 3.81627C6.71407 3.9583 6.67983 4.15443 6.53731 4.25465C4.0261 6.02044 2.52695 8.90155 2.52695 11.9622C2.52695 12.6729 2.61919 13.273 2.71697 13.9081C2.91253 15.179 3.11458 16.4929 2.51554 18.6565C2.47698 18.7961 2.3499 18.8877 2.21139 18.8877ZM22.1491 18.2206C22.1417 18.2206 22.1343 18.2206 22.1266 18.22C21.9526 18.2077 21.8215 18.057 21.8338 17.8836C21.8887 17.1003 21.9026 16.3724 21.8773 15.5928C21.8715 15.4188 22.0081 15.2731 22.1827 15.2675C22.3385 15.2632 22.5026 15.3973 22.5084 15.5719C22.5347 16.3742 22.5205 17.1225 22.4637 17.9279C22.4523 18.0939 22.3135 18.2206 22.1491 18.2206ZM6.39974 17.2762C6.39542 17.2762 6.3911 17.2762 6.38678 17.2762C6.2125 17.2688 6.07678 17.1225 6.08387 16.9485C6.13199 15.7526 5.98269 14.6465 5.85098 13.6708C5.76245 13.0129 5.68564 12.4448 5.68564 11.9622C5.68564 8.49084 8.51952 5.6663 12.003 5.6663C13.9084 5.6663 15.6068 6.52707 16.7852 8.08997C16.8897 8.22954 16.8617 8.4269 16.7222 8.53081C16.5834 8.63718 16.3854 8.60704 16.2799 8.46871C15.224 7.06751 13.7051 6.29589 12.003 6.29589C8.86809 6.29589 6.31738 8.83761 6.31738 11.9622C6.31738 12.4024 6.39141 12.9515 6.47717 13.5866C6.60579 14.5383 6.76558 15.7231 6.71499 16.9743C6.70821 17.1434 6.56816 17.2762 6.39974 17.2762ZM0.852909 15.784C0.718419 15.784 0.594105 15.6979 0.551539 15.5639C0.185699 14.4037 0 13.1918 0 11.9622C0 10.8204 0.159476 9.70206 0.474113 8.63717C0.523465 8.47117 0.698677 8.37525 0.866176 8.42444C1.03368 8.47363 1.1293 8.64824 1.07994 8.81547C0.782578 9.82196 0.631738 10.8807 0.631738 11.9622C0.631738 13.1279 0.807564 14.2758 1.15428 15.3745C1.20641 15.5405 1.11418 15.7176 0.947607 15.7692C0.916147 15.7791 0.88406 15.784 0.852909 15.784ZM22.0852 13.7563C21.9236 13.7563 21.7857 13.6333 21.7709 13.4698C21.7607 13.3554 21.7521 13.2374 21.7434 13.1168L21.7203 12.8131C21.2314 6.65495 17.3262 2.51836 12.003 2.51836C10.7787 2.51836 9.59452 2.74584 8.48281 3.19467C8.32055 3.25861 8.13671 3.18176 8.07162 3.02067C8.00622 2.85959 8.08396 2.67636 8.24591 2.61058C9.4332 2.13162 10.6973 1.88877 12.003 1.88877C17.6754 1.88877 21.8335 6.25838 22.3499 12.7621L22.4002 13.4132C22.4159 13.5866 22.2876 13.7397 22.1139 13.755C22.1044 13.7557 22.0948 13.7563 22.0852 13.7563ZM23.6837 11.9622C23.5134 11.9622 23.3728 11.8269 23.3681 11.656C23.2225 6.24116 19.2313 1.66866 13.8779 0.78268C13.7058 0.754399 13.5895 0.592084 13.6182 0.42054C13.6462 0.249619 13.8066 0.131572 13.9815 0.161697C19.6326 1.09686 23.846 5.92391 23.9999 11.6388C24.0045 11.8128 23.8669 11.9573 23.6923 11.9622C23.6896 11.9622 23.6868 11.9622 23.6837 11.9622ZM1.54757 7.07058C1.50038 7.07058 1.45226 7.06013 1.40691 7.03738C1.25083 6.95991 1.18728 6.77054 1.26533 6.61499C3.30891 2.53496 7.42323 0 12.003 0H12.0663C12.2409 0 12.3821 0.140795 12.3821 0.314794C12.3821 0.488794 12.2409 0.629589 12.0663 0.629589H12.003C7.66415 0.629589 3.76637 3.03112 1.83044 6.89658C1.77522 7.00664 1.66356 7.07058 1.54757 7.07058Z" 
  />
</svg>
