
<svg width="19" height="20" fill="none"
  xmlns="http://www.w3.org/2000/svg">
  <path d="M1.39 18.39V7.27h15.29v11.12H1.39zM5.56 5.185a.343.343 0 0 1-.348.348h-.695a.343.343 0 0 1-.347-.348V2.058c0-.196.152-.348.347-.348h.695c.196 0 .348.152.348.348v3.127zm8.34 0a.343.343 0 0 1-.348.348h-.695a.343.343 0 0 1-.347-.348V2.058c0-.196.152-.348.347-.348h.695c.196 0 .348.152.348.348v3.127zm4.17-.695a1.4 1.4 0 0 0-1.39-1.39h-1.39V2.058c0-.956-.782-1.738-1.738-1.738h-.695c-.955 0-1.737.782-1.737 1.738V3.1H6.95V2.058C6.95 1.102 6.168.32 5.212.32h-.695c-.955 0-1.737.782-1.737 1.738V3.1H1.39A1.4 1.4 0 0 0 0 4.49v13.9c0 .76.63 1.39 1.39 1.39h15.29a1.4 1.4 0 0 0 1.39-1.39V4.49z" fill="currentColor"/>
</svg>
