<svg width="145" height="55" xmlns="http://www.w3.org/2000/svg"><g fill="none" fill-rule="evenodd"><path d="M35.32 15.366C35.32 6.9 28.342.02 19.758.02 11.154.02 4.197 6.9 4.197 15.366v10.591h1.912V15.366c0-7.442 6.123-13.46 13.65-13.46 7.526 0 13.649 6.038 13.649 13.46v3.11h1.912v-3.11z" fill="#F1E65D"/><path d="M33.408 15.386c0-7.442-6.123-13.46-13.65-13.46-7.547 0-13.65 6.038-13.65 13.46v10.592h4.171V15.386c0-5.176 4.251-9.348 9.48-9.348 5.227 0 9.479 4.193 9.479 9.348v3.13h4.17v-3.13z" fill="#F1E65D"/><path d="M19.758 6.038c-5.248 0-9.479 4.193-9.479 9.348v10.592h1.953V15.386c0-4.092 3.377-7.422 7.526-7.422 4.15 0 7.527 3.33 7.527 7.422v3.13h1.953v-3.13c0-5.176-4.252-9.348-9.48-9.348z" fill="#F1E65D"/><path d="M31.312 26.072c-.223 0-.59-.482-.996-1.224h1.973c-.407.722-.753 1.224-.977 1.224z" fill="#5DBFC8"/><path d="M35.32 18.617v-2.019h-8.035v2.02s1.77 4.214 3.03 6.25h1.974c1.281-2.036 3.03-6.25 3.03-6.25zM4.197 25.957h8.035v1.163H4.197z" fill="#FFF"/><g fill="#5DBFC8"><path d="M2.253 27.5c.166.5.64.857 1.198.857H34.68c.563 0 1.032-.359 1.198-.857h2.253v24.701a2.31 2.31 0 0 1-2.314 2.302H2.314A2.305 2.305 0 0 1 0 52.201V27.5h2.253z"/></g><g transform="translate(14.55 33.5)" fill="#424657"><path d="M1.986 6.756h5.56v5.965a2.781 2.781 0 0 1-2.78 2.779 2.785 2.785 0 0 1-2.78-2.779V6.756z"/><ellipse cx="4.766" cy="4.769" rx="4.766" ry="4.769"/></g><text font-family="CenturyGothic, Century Gothic" font-size="30" fill="#FFF"><tspan x="47.162" y="41.5">NDAify</tspan></text><g><path d="M11.578 26.68H7.779v-.017H6.038v-9.18c0-7.336 6.336-13.299 14.174-13.299 7.819 0 14.174 5.963 14.174 13.3v2.694h-1.742v.035h-5.577v-2.712c0-3.546-3.075-6.432-6.855-6.432-3.78 0-6.856 2.886-6.856 6.432v9.18h-1.778zm21.066-9.179v-.017c0-6.433-5.577-11.666-12.432-11.666-6.856 0-12.433 5.216-12.433 11.666v.017c0-6.432 5.559-11.665 12.433-11.665 6.855 0 12.432 5.215 12.432 11.665z" fill="#FFDE54"/><path d="M30.736 26.762c-.204 0-.537-.417-.908-1.06h1.797c-.37.625-.685 1.06-.89 1.06z" fill="#5DBFC8"/><path d="M34.386 20.301v-1.75h-7.319v1.75s1.612 3.653 2.761 5.418h1.797c1.168-1.765 2.76-5.418 2.76-5.418zM6.038 26.663h7.319v1.008H6.038z" fill="#FFF"/><g fill="#5DBFC8"><path d="M4.055 28c.142.434.547.743 1.025.743h28.679c.476 0 .881-.311 1.024-.743h2.056v18.78a4.627 4.627 0 0 1-4.627 4.623H6.626A4.63 4.63 0 0 1 2 46.779V28h2.055z"/></g><g transform="translate(15.333 33.2)" fill="#424657"><path d="M1.792 5.856H6.81v5.075a2.5 2.5 0 0 1-2.509 2.502 2.504 2.504 0 0 1-2.509-2.502V5.856z"/><ellipse cx="4.301" cy="4.133" rx="4.301" ry="4.133"/></g></g></g></svg>
