<svg width="49" height="45" viewBox="0 0 49 45" fill="none" 
    xmlns="http://www.w3.org/2000/svg">
    <path fill-rule="evenodd" clip-rule="evenodd" d="M45.8131 24.0489C45.8131 12.312 36.2005 2.82129 24.3844 2.82129C12.5363 2.82129 2.95569 12.3437 2.95569 24.0489V40.7526H9.50246V24.0489C9.50246 15.8869 16.177 9.30662 24.3844 9.30662C32.5918 9.30662 39.2663 15.9185 39.2663 24.0489V28.9841H45.8131V24.0489Z" fill="#4AC09A" stroke="#4AC09A" stroke-width="4.92614"/>
    <path fill-rule="evenodd" clip-rule="evenodd" d="M42.463 44.6931C42.1092 44.6931 41.5302 43.9179 40.887 42.7227H44.0069C43.3636 43.8855 42.8168 44.6931 42.463 44.6931Z" fill="#61C9A8"/>
    <path fill-rule="evenodd" clip-rule="evenodd" d="M48.7688 32.7526V29.5859H36.125V32.7526C36.125 32.7526 38.9099 39.3637 40.8945 42.5581H43.9994C46.016 39.3637 48.7688 32.7526 48.7688 32.7526Z" fill="#EDD9A3"/>
    <rect y="42.8867" width="12.6438" height="1.80625" fill="#EDD9A3"/>
</svg>
