<svg width="364" height="524" xmlns="http://www.w3.org/2000/svg"><g fill-rule="nonzero" fill="none"><path d="M318.913 176.104h-39.808v1.643h-18.641v-30.042c0-39.285-32.235-71.253-71.849-71.253-39.614 0-71.848 31.968-71.848 71.253v101.68h-58.45l-.012-.193H40.063v-101.68c0-81.266 66.412-147.32 148.552-147.32 81.946 0 148.552 66.054 148.552 147.32v29.85h-18.254v-1.258z" fill="#FFDE54"/><path d="M298.912 250.287c-2.136 0-5.631-4.622-9.515-11.747h18.836c-3.884 6.933-7.185 11.747-9.32 11.747h-.001z" fill="#5DBFC8"/><path d="M337.167 178.724v-19.38h-76.703v19.38s16.894 40.459 28.933 60.008h18.836c12.234-19.55 28.934-60.008 28.934-60.008zM40.064 249.192h76.703v11.169H40.064v-11.169z" fill="#FFF"/><path d="M21.513 264c1.593 4.784 6.108 8.232 11.43 8.232h298.115c5.322 0 9.836-3.45 11.429-8.232H364v237.061c0 12.246-9.925 22.172-22.17 22.172H22.17C9.927 523.233 0 513.31 0 501.061V264h21.513z" fill="#5DBFC8"/><g transform="translate(138.895 321.6)" fill="#424657"><path d="M18.958 64.862h53.084v57.394c0 14.66-11.88 26.544-26.542 26.544-14.659 0-26.542-11.893-26.542-26.544V64.862z"/><ellipse cx="45.5" cy="45.785" rx="45.5" ry="45.785"/></g></g></svg>
